<mxfile host="app.diagrams.net" modified="2023-05-08T16:40:51.833Z" agent="Mozilla/5.0 (Windows NT 10.0; Win64; x64) AppleWebKit/537.36 (KHTML, like Gecko) Chrome/112.0.0.0 Safari/537.36" etag="uvc-uaDtm_b1VtaO-6t4" version="21.2.9" type="device">
  <diagram name="Page-1" id="JGjeTt0v-IsgGG0zKTaS">
    <mxGraphModel dx="1100" dy="605" grid="1" gridSize="10" guides="1" tooltips="1" connect="1" arrows="1" fold="1" page="1" pageScale="1" pageWidth="900" pageHeight="900" math="0" shadow="0">
      <root>
        <mxCell id="0" />
        <mxCell id="1" parent="0" />
        <mxCell id="w74tCO-8Fq-XeEqIFPl6-1" value="Superieur" style="shape=umlActor;verticalLabelPosition=bottom;verticalAlign=top;html=1;outlineConnect=0;" vertex="1" parent="1">
          <mxGeometry x="60" y="390" width="70" height="120" as="geometry" />
        </mxCell>
        <mxCell id="w74tCO-8Fq-XeEqIFPl6-2" value="Traiter erreur" style="ellipse;whiteSpace=wrap;html=1;fontSize=16;" vertex="1" parent="1">
          <mxGeometry x="500" y="330" width="140" height="70" as="geometry" />
        </mxCell>
        <mxCell id="w74tCO-8Fq-XeEqIFPl6-3" value="Créer Compte" style="ellipse;whiteSpace=wrap;html=1;fontSize=16;" vertex="1" parent="1">
          <mxGeometry x="140" y="250" width="140" height="70" as="geometry" />
        </mxCell>
        <mxCell id="w74tCO-8Fq-XeEqIFPl6-4" value="gérer les comptes" style="ellipse;whiteSpace=wrap;html=1;fontSize=16;" vertex="1" parent="1">
          <mxGeometry x="320" y="430" width="140" height="70" as="geometry" />
        </mxCell>
        <mxCell id="w74tCO-8Fq-XeEqIFPl6-6" value="" style="edgeStyle=none;html=1;endArrow=none;verticalAlign=bottom;rounded=0;" edge="1" parent="1" source="w74tCO-8Fq-XeEqIFPl6-1" target="w74tCO-8Fq-XeEqIFPl6-4">
          <mxGeometry width="160" relative="1" as="geometry">
            <mxPoint x="260" y="560" as="sourcePoint" />
            <mxPoint x="420" y="560" as="targetPoint" />
          </mxGeometry>
        </mxCell>
        <mxCell id="w74tCO-8Fq-XeEqIFPl6-7" value="recherche" style="ellipse;whiteSpace=wrap;html=1;fontSize=16;" vertex="1" parent="1">
          <mxGeometry x="660" y="410" width="140" height="70" as="geometry" />
        </mxCell>
        <mxCell id="w74tCO-8Fq-XeEqIFPl6-10" style="edgeStyle=orthogonalEdgeStyle;rounded=0;orthogonalLoop=1;jettySize=auto;html=1;exitX=0.5;exitY=1;exitDx=0;exitDy=0;" edge="1" parent="1" source="w74tCO-8Fq-XeEqIFPl6-3" target="w74tCO-8Fq-XeEqIFPl6-3">
          <mxGeometry relative="1" as="geometry" />
        </mxCell>
        <mxCell id="w74tCO-8Fq-XeEqIFPl6-13" value="modifier compte" style="ellipse;whiteSpace=wrap;html=1;fontSize=16;" vertex="1" parent="1">
          <mxGeometry x="310" y="580" width="140" height="70" as="geometry" />
        </mxCell>
        <mxCell id="w74tCO-8Fq-XeEqIFPl6-15" value="" style="edgeStyle=none;html=1;endArrow=none;verticalAlign=bottom;rounded=0;entryX=0.048;entryY=0.191;entryDx=0;entryDy=0;entryPerimeter=0;" edge="1" parent="1" source="w74tCO-8Fq-XeEqIFPl6-1" target="w74tCO-8Fq-XeEqIFPl6-13">
          <mxGeometry width="160" relative="1" as="geometry">
            <mxPoint x="150" y="456" as="sourcePoint" />
            <mxPoint x="325" y="387" as="targetPoint" />
          </mxGeometry>
        </mxCell>
        <mxCell id="w74tCO-8Fq-XeEqIFPl6-18" value="" style="edgeStyle=none;html=1;endArrow=block;endFill=0;endSize=12;verticalAlign=bottom;rounded=0;exitX=0;exitY=1;exitDx=0;exitDy=0;" edge="1" parent="1" source="w74tCO-8Fq-XeEqIFPl6-2" target="w74tCO-8Fq-XeEqIFPl6-4">
          <mxGeometry width="160" relative="1" as="geometry">
            <mxPoint x="390" y="390" as="sourcePoint" />
            <mxPoint x="550" y="390" as="targetPoint" />
          </mxGeometry>
        </mxCell>
        <mxCell id="w74tCO-8Fq-XeEqIFPl6-19" value="Active/désactiver compte" style="ellipse;whiteSpace=wrap;html=1;fontSize=16;" vertex="1" parent="1">
          <mxGeometry x="370" y="180" width="140" height="70" as="geometry" />
        </mxCell>
        <mxCell id="w74tCO-8Fq-XeEqIFPl6-20" value="" style="edgeStyle=none;html=1;endArrow=block;endFill=0;endSize=12;verticalAlign=bottom;rounded=0;" edge="1" parent="1" source="w74tCO-8Fq-XeEqIFPl6-3" target="w74tCO-8Fq-XeEqIFPl6-4">
          <mxGeometry width="160" relative="1" as="geometry">
            <mxPoint x="150" y="330" as="sourcePoint" />
            <mxPoint x="310" y="330" as="targetPoint" />
          </mxGeometry>
        </mxCell>
        <mxCell id="w74tCO-8Fq-XeEqIFPl6-21" value="" style="edgeStyle=none;html=1;endArrow=block;endFill=0;endSize=12;verticalAlign=bottom;rounded=0;entryX=0.714;entryY=0.054;entryDx=0;entryDy=0;entryPerimeter=0;" edge="1" parent="1" source="w74tCO-8Fq-XeEqIFPl6-19" target="w74tCO-8Fq-XeEqIFPl6-4">
          <mxGeometry width="160" relative="1" as="geometry">
            <mxPoint x="500" y="370" as="sourcePoint" />
            <mxPoint x="660" y="370" as="targetPoint" />
          </mxGeometry>
        </mxCell>
        <mxCell id="w74tCO-8Fq-XeEqIFPl6-22" value="&amp;lt;&amp;lt;include&amp;gt;&amp;gt;" style="edgeStyle=none;html=1;endArrow=open;verticalAlign=bottom;dashed=1;labelBackgroundColor=none;rounded=0;exitX=1;exitY=0.5;exitDx=0;exitDy=0;" edge="1" parent="1" source="w74tCO-8Fq-XeEqIFPl6-19" target="w74tCO-8Fq-XeEqIFPl6-7">
          <mxGeometry width="160" relative="1" as="geometry">
            <mxPoint x="500" y="370" as="sourcePoint" />
            <mxPoint x="710" y="350" as="targetPoint" />
            <Array as="points">
              <mxPoint x="730" y="215" />
            </Array>
          </mxGeometry>
        </mxCell>
        <mxCell id="w74tCO-8Fq-XeEqIFPl6-23" value="&amp;lt;&amp;lt;include&amp;gt;&amp;gt;" style="edgeStyle=none;html=1;endArrow=open;verticalAlign=bottom;dashed=1;labelBackgroundColor=none;rounded=0;exitX=0.5;exitY=1;exitDx=0;exitDy=0;entryX=0;entryY=0;entryDx=0;entryDy=0;" edge="1" parent="1" source="w74tCO-8Fq-XeEqIFPl6-2" target="w74tCO-8Fq-XeEqIFPl6-7">
          <mxGeometry width="160" relative="1" as="geometry">
            <mxPoint x="500" y="370" as="sourcePoint" />
            <mxPoint x="660" y="370" as="targetPoint" />
          </mxGeometry>
        </mxCell>
        <mxCell id="w74tCO-8Fq-XeEqIFPl6-24" value="modifier username" style="ellipse;whiteSpace=wrap;html=1;fontSize=16;" vertex="1" parent="1">
          <mxGeometry x="140" y="710" width="140" height="70" as="geometry" />
        </mxCell>
        <mxCell id="w74tCO-8Fq-XeEqIFPl6-25" value="modifier role" style="ellipse;whiteSpace=wrap;html=1;fontSize=16;" vertex="1" parent="1">
          <mxGeometry x="370" y="750" width="140" height="70" as="geometry" />
        </mxCell>
        <mxCell id="w74tCO-8Fq-XeEqIFPl6-26" value="" style="edgeStyle=none;html=1;endArrow=block;endFill=0;endSize=12;verticalAlign=bottom;rounded=0;exitX=0.5;exitY=0;exitDx=0;exitDy=0;" edge="1" parent="1" source="w74tCO-8Fq-XeEqIFPl6-25" target="w74tCO-8Fq-XeEqIFPl6-13">
          <mxGeometry width="160" relative="1" as="geometry">
            <mxPoint x="500" y="750" as="sourcePoint" />
            <mxPoint x="660" y="750" as="targetPoint" />
          </mxGeometry>
        </mxCell>
        <mxCell id="w74tCO-8Fq-XeEqIFPl6-27" value="" style="edgeStyle=none;html=1;endArrow=block;endFill=0;endSize=12;verticalAlign=bottom;rounded=0;entryX=0;entryY=1;entryDx=0;entryDy=0;" edge="1" parent="1" source="w74tCO-8Fq-XeEqIFPl6-24" target="w74tCO-8Fq-XeEqIFPl6-13">
          <mxGeometry width="160" relative="1" as="geometry">
            <mxPoint x="450" y="760" as="sourcePoint" />
            <mxPoint x="405" y="659" as="targetPoint" />
          </mxGeometry>
        </mxCell>
        <mxCell id="w74tCO-8Fq-XeEqIFPl6-30" value="s&#39;authentifier" style="ellipse;whiteSpace=wrap;html=1;fontSize=21;" vertex="1" parent="1">
          <mxGeometry x="670" y="550" width="180" height="100" as="geometry" />
        </mxCell>
        <mxCell id="w74tCO-8Fq-XeEqIFPl6-32" value="&amp;lt;&amp;lt;include&amp;gt;&amp;gt;" style="edgeStyle=none;html=1;endArrow=open;verticalAlign=bottom;dashed=1;labelBackgroundColor=none;rounded=0;entryX=0;entryY=0;entryDx=0;entryDy=0;" edge="1" parent="1" source="w74tCO-8Fq-XeEqIFPl6-4" target="w74tCO-8Fq-XeEqIFPl6-30">
          <mxGeometry width="160" relative="1" as="geometry">
            <mxPoint x="500" y="500" as="sourcePoint" />
            <mxPoint x="660" y="500" as="targetPoint" />
          </mxGeometry>
        </mxCell>
        <mxCell id="w74tCO-8Fq-XeEqIFPl6-33" value="&amp;lt;&amp;lt;include&amp;gt;&amp;gt;" style="edgeStyle=none;html=1;endArrow=open;verticalAlign=bottom;dashed=1;labelBackgroundColor=none;rounded=0;entryX=0.021;entryY=0.725;entryDx=0;entryDy=0;entryPerimeter=0;exitX=1;exitY=0.5;exitDx=0;exitDy=0;" edge="1" parent="1" source="w74tCO-8Fq-XeEqIFPl6-13" target="w74tCO-8Fq-XeEqIFPl6-30">
          <mxGeometry width="160" relative="1" as="geometry">
            <mxPoint x="459" y="494" as="sourcePoint" />
            <mxPoint x="706" y="575" as="targetPoint" />
          </mxGeometry>
        </mxCell>
      </root>
    </mxGraphModel>
  </diagram>
</mxfile>
